<svg xmlns="http://www.w3.org/2000/svg" viewBox="0 0 2400 600" preserveAspectRatio="xMidYMax slice">
  <defs>
    <linearGradient id="treeGrad1" x1="0%" y1="0%" x2="0%" y2="100%">
      <stop offset="0%" style="stop-color:#1a3a2f;stop-opacity:1" />
      <stop offset="100%" style="stop-color:#0f2219;stop-opacity:1" />
    </linearGradient>
    <linearGradient id="treeGrad2" x1="0%" y1="0%" x2="0%" y2="100%">
      <stop offset="0%" style="stop-color:#2d5a47;stop-opacity:1" />
      <stop offset="100%" style="stop-color:#1a3a2f;stop-opacity:1" />
    </linearGradient>
    <linearGradient id="treeGrad3" x1="0%" y1="0%" x2="0%" y2="100%">
      <stop offset="0%" style="stop-color:#7a9e8e;stop-opacity:0.9" />
      <stop offset="100%" style="stop-color:#2d5a47;stop-opacity:1" />
    </linearGradient>
  </defs>
  
  <!-- Ground -->
  <rect x="0" y="550" width="2400" height="50" fill="#1a3a2f"/>
  
  <!-- Far trees (lightest, smallest) -->
  <g fill="url(#treeGrad3)">
    <!-- Pine tree shapes - far layer -->
    <path d="M50,550 L50,480 L30,480 L60,420 L40,420 L70,350 L100,420 L80,420 L110,480 L90,480 L90,550 Z"/>
    <path d="M150,550 L150,500 L135,500 L160,460 L145,460 L170,400 L195,460 L180,460 L205,500 L190,500 L190,550 Z"/>
    <path d="M280,550 L280,490 L265,490 L290,440 L275,440 L305,370 L335,440 L320,440 L345,490 L330,490 L330,550 Z"/>
    <path d="M400,550 L400,510 L385,510 L410,460 L395,460 L425,390 L455,460 L440,460 L465,510 L450,510 L450,550 Z"/>
    <path d="M550,550 L550,485 L535,485 L560,430 L545,430 L575,360 L605,430 L590,430 L615,485 L600,485 L600,550 Z"/>
    <path d="M700,550 L700,500 L685,500 L710,450 L695,450 L725,380 L755,450 L740,450 L765,500 L750,500 L750,550 Z"/>
    <path d="M850,550 L850,480 L835,480 L860,420 L845,420 L875,350 L905,420 L890,420 L915,480 L900,480 L900,550 Z"/>
    <path d="M1000,550 L1000,495 L985,495 L1010,445 L995,445 L1025,375 L1055,445 L1040,445 L1065,495 L1050,495 L1050,550 Z"/>
    <path d="M1150,550 L1150,505 L1135,505 L1160,455 L1145,455 L1175,385 L1205,455 L1190,455 L1215,505 L1200,505 L1200,550 Z"/>
    <path d="M1300,550 L1300,490 L1285,490 L1310,440 L1295,440 L1325,370 L1355,440 L1340,440 L1365,490 L1350,490 L1350,550 Z"/>
    <path d="M1450,550 L1450,500 L1435,500 L1460,450 L1445,450 L1475,380 L1505,450 L1490,450 L1515,500 L1500,500 L1500,550 Z"/>
    <path d="M1600,550 L1600,485 L1585,485 L1610,430 L1595,430 L1625,360 L1655,430 L1640,430 L1665,485 L1650,485 L1650,550 Z"/>
    <path d="M1750,550 L1750,495 L1735,495 L1760,445 L1745,445 L1775,375 L1805,445 L1790,445 L1815,495 L1800,495 L1800,550 Z"/>
    <path d="M1900,550 L1900,480 L1885,480 L1910,420 L1895,420 L1925,350 L1955,420 L1940,420 L1965,480 L1950,480 L1950,550 Z"/>
    <path d="M2050,550 L2050,505 L2035,505 L2060,455 L2045,455 L2075,385 L2105,455 L2090,455 L2115,505 L2100,505 L2100,550 Z"/>
    <path d="M2200,550 L2200,490 L2185,490 L2210,440 L2195,440 L2225,370 L2255,440 L2240,440 L2265,490 L2250,490 L2250,550 Z"/>
    <path d="M2350,550 L2350,500 L2335,500 L2360,450 L2345,450 L2375,380 L2405,450 L2390,450 L2415,500 L2400,500 L2400,550 Z"/>
  </g>
  
  <!-- Middle trees -->
  <g fill="url(#treeGrad2)">
    <path d="M100,550 L100,450 L75,450 L115,370 L90,370 L130,270 L170,370 L145,370 L185,450 L160,450 L160,550 Z"/>
    <path d="M250,550 L250,470 L230,470 L265,400 L245,400 L280,310 L315,400 L295,400 L330,470 L310,470 L310,550 Z"/>
    <path d="M450,550 L450,460 L425,460 L465,380 L440,380 L480,280 L520,380 L495,380 L535,460 L510,460 L510,550 Z"/>
    <path d="M620,550 L620,480 L600,480 L635,410 L615,410 L650,320 L685,410 L665,410 L700,480 L680,480 L680,550 Z"/>
    <path d="M800,550 L800,455 L775,455 L815,375 L790,375 L830,275 L870,375 L845,375 L885,455 L860,455 L860,550 Z"/>
    <path d="M980,550 L980,465 L955,465 L995,385 L970,385 L1010,285 L1050,385 L1025,385 L1065,465 L1040,465 L1040,550 Z"/>
    <path d="M1150,550 L1150,450 L1125,450 L1165,370 L1140,370 L1180,270 L1220,370 L1195,370 L1235,450 L1210,450 L1210,550 Z"/>
    <path d="M1350,550 L1350,475 L1325,475 L1365,395 L1340,395 L1380,295 L1420,395 L1395,395 L1435,475 L1410,475 L1410,550 Z"/>
    <path d="M1520,550 L1520,460 L1495,460 L1535,380 L1510,380 L1550,280 L1590,380 L1565,380 L1605,460 L1580,460 L1580,550 Z"/>
    <path d="M1700,550 L1700,455 L1675,455 L1715,375 L1690,375 L1730,275 L1770,375 L1745,375 L1785,455 L1760,455 L1760,550 Z"/>
    <path d="M1880,550 L1880,470 L1855,470 L1895,390 L1870,390 L1910,290 L1950,390 L1925,390 L1965,470 L1940,470 L1940,550 Z"/>
    <path d="M2080,550 L2080,460 L2055,460 L2095,380 L2070,380 L2110,280 L2150,380 L2125,380 L2165,460 L2140,460 L2140,550 Z"/>
    <path d="M2280,550 L2280,475 L2255,475 L2295,395 L2270,395 L2310,295 L2350,395 L2325,395 L2365,475 L2340,475 L2340,550 Z"/>
  </g>
  
  <!-- Front trees (darkest, largest) -->
  <g fill="url(#treeGrad1)">
    <path d="M30,550 L30,420 L0,420 L50,320 L20,320 L70,200 L120,320 L90,320 L140,420 L110,420 L110,550 Z"/>
    <path d="M200,550 L200,440 L170,440 L220,340 L190,340 L240,220 L290,340 L260,340 L310,440 L280,440 L280,550 Z"/>
    <path d="M380,550 L380,430 L350,430 L400,330 L370,330 L420,210 L470,330 L440,330 L490,430 L460,430 L460,550 Z"/>
    <path d="M560,550 L560,450 L530,450 L580,350 L550,350 L600,230 L650,350 L620,350 L670,450 L640,450 L640,550 Z"/>
    <path d="M750,550 L750,425 L720,425 L770,325 L740,325 L790,205 L840,325 L810,325 L860,425 L830,425 L830,550 Z"/>
    <path d="M950,550 L950,440 L920,440 L970,340 L940,340 L990,220 L1040,340 L1010,340 L1060,440 L1030,440 L1030,550 Z"/>
    <path d="M1130,550 L1130,430 L1100,430 L1150,330 L1120,330 L1170,210 L1220,330 L1190,330 L1240,430 L1210,430 L1210,550 Z"/>
    <path d="M1320,550 L1320,445 L1290,445 L1340,345 L1310,345 L1360,225 L1410,345 L1380,345 L1430,445 L1400,445 L1400,550 Z"/>
    <path d="M1500,550 L1500,420 L1470,420 L1520,320 L1490,320 L1540,200 L1590,320 L1560,320 L1610,420 L1580,420 L1580,550 Z"/>
    <path d="M1700,550 L1700,435 L1670,435 L1720,335 L1690,335 L1740,215 L1790,335 L1760,335 L1810,435 L1780,435 L1780,550 Z"/>
    <path d="M1900,550 L1900,425 L1870,425 L1920,325 L1890,325 L1940,205 L1990,325 L1960,325 L2010,425 L1980,425 L1980,550 Z"/>
    <path d="M2100,550 L2100,440 L2070,440 L2120,340 L2090,340 L2140,220 L2190,340 L2160,340 L2210,440 L2180,440 L2180,550 Z"/>
    <path d="M2300,550 L2300,430 L2270,430 L2320,330 L2290,330 L2340,210 L2390,330 L2360,330 L2410,430 L2380,430 L2380,550 Z"/>
  </g>
</svg>

